<svg width="289" height="89" viewBox="0 0 289 89" fill="none" xmlns="http://www.w3.org/2000/svg">
<path fill-rule="evenodd" clip-rule="evenodd" d="M57.3525 7.16097C56.7445 7.35836 56.7206 8.23854 57.317 8.47085L62.4991 10.4894C62.6951 10.5658 62.8453 10.7324 62.9052 10.9398L64.2237 15.5051C64.4143 16.165 65.3186 16.165 65.5091 15.5051L66.8276 10.9398C66.8875 10.7324 67.0378 10.5658 67.2338 10.4894L72.4159 8.47085C73.0123 8.23854 72.9884 7.35836 72.3803 7.16097L67.2626 5.4997C67.056 5.43266 66.8939 5.26688 66.8264 5.05511C66.8245 5.049 66.8226 5.04285 66.8208 5.03666L65.5091 0.494902C65.3186 -0.164967 64.4143 -0.164967 64.2237 0.494902L62.912 5.03666C62.9102 5.04284 62.9084 5.049 62.9064 5.05511C62.839 5.26688 62.6769 5.43266 62.4703 5.4997L57.3525 7.16097ZM62.9052 10.9398L62.9082 10.9389Z" fill="#6C16FF"/>
<path d="M64.3828 20.3535L44.4649 69.8735C43.9906 71.0528 42.6804 72 41.4163 72H33.9317L54.8628 20.3535H64.3828Z" fill="#6C16FF"/>
<path d="M59.8772 72H102.789C106.846 72 110.229 71.1833 113.428 70.0508C116.66 68.9183 119.381 67.3527 121.591 65.3541C123.834 63.3222 125.549 60.9239 126.737 58.1591C127.924 55.3611 128.518 52.3133 128.518 49.0156C128.518 45.3182 127.479 42.287 125.401 39.922C123.323 37.5236 120.173 35.8415 115.951 34.8755C118.392 34.0761 120.519 33.0601 122.333 31.8276C124.147 30.5619 125.648 29.1129 126.835 27.4807C128.056 25.8485 128.963 24.0664 129.557 22.1345C130.15 20.2025 130.447 18.1872 130.447 16.0887C130.447 13.6238 130.035 11.4087 129.21 9.44337C128.386 7.44477 127.099 5.74597 125.351 4.34695C123.603 2.94793 121.377 1.88201 118.672 1.14919C116.001 0.383064 112.785 0 109.025 0H90.25L86.9526 8.04435H108.085C112.208 8.04435 115.242 8.86044 117.188 10.4926C119.167 12.0915 120.157 14.5564 120.157 17.8874C120.157 20.0526 119.827 22.0179 119.167 23.7833C118.507 25.5154 117.534 26.9977 116.248 28.2302C114.962 29.4293 113.346 30.362 111.4 31.0282C109.487 31.6944 107.26 32.0275 104.721 32.0275H77.1086L74.1695 39.2724H106.304C108.382 39.2724 110.179 39.5056 111.697 39.9719C113.247 40.4383 114.517 41.1045 115.506 41.9705C116.495 42.8366 117.238 43.8858 117.732 45.1183C118.227 46.3175 118.474 47.6832 118.474 49.2154C118.474 51.4139 118.161 53.3958 117.534 55.1613C116.908 56.9267 115.968 58.4423 114.714 59.7081C113.461 60.9405 111.894 61.9065 110.014 62.606C108.134 63.2722 105.925 63.6053 103.385 63.6053H64.9985L39.5303 0H28.7311L0 72H7.98362C8.88775 72 9.91188 71.5745 10.5481 71.0743C11.1843 70.5408 11.6197 69.9573 11.8541 69.3237L21.1967 45.0654L31.8453 17.3059C32.2136 16.3389 32.582 15.2385 32.9503 14.0048C33.3521 12.771 33.7372 11.4372 34.1056 10.0034C34.8757 12.9044 35.6459 15.3052 36.4161 17.2059L56.4073 69.3237C56.6752 70.0573 57.1105 70.6575 57.7132 71.1243C58.316 71.5912 58.9396 72 59.8772 72Z" fill="#6C16FF"/>
<path fill-rule="evenodd" clip-rule="evenodd" d="M191.6 59.2208C190.446 61.2561 189.192 63.1079 187.84 64.7762C186.521 66.4112 185.103 67.8126 183.585 68.9804C182.101 70.1482 180.518 71.0491 178.836 71.683C177.187 72.317 175.472 72.634 173.691 72.634C171.712 72.634 169.898 72.2503 168.248 71.4828C166.632 70.6821 165.231 69.5309 164.043 68.0294C162.889 66.4946 161.982 64.6094 161.322 62.3739C160.695 60.1384 160.382 57.5692 160.382 54.6663C160.382 51.6634 160.745 48.7271 161.471 45.8576C162.229 42.9548 163.301 40.2355 164.686 37.6996C166.072 35.1638 167.721 32.8282 169.634 30.6927C171.58 28.5573 173.74 26.7222 176.115 25.1873C178.49 23.6525 181.046 22.468 183.783 21.6338C186.554 20.7663 189.44 20.3326 192.441 20.3326C194.618 20.3326 196.745 20.5161 198.823 20.8831C200.934 21.2168 203.012 21.8173 205.057 22.6849L199.021 71.9333H193.975C192.721 71.9333 191.88 71.6163 191.452 70.9824C191.023 70.315 190.808 69.5143 190.808 68.58L191.6 59.2208ZM194.964 27.7398C193.678 27.5396 192.408 27.4395 191.155 27.4395C188.219 27.4395 185.465 28.1402 182.893 29.5416C180.32 30.9096 178.077 32.7614 176.164 35.0971C174.284 37.4327 172.784 40.152 171.662 43.2551C170.574 46.3248 170.029 49.5446 170.029 52.9146C170.029 56.8184 170.656 59.738 171.909 61.6732C173.163 63.5751 174.977 64.526 177.352 64.526C178.902 64.526 180.419 64.0255 181.903 63.0245C183.42 61.9902 184.839 60.5888 186.158 58.8204C187.51 57.0186 188.747 54.8999 189.868 52.4641C191.023 50.0284 192.029 47.3758 192.886 44.5063L194.964 27.7398Z" fill="#6C16FF"/>
<path d="M223.084 27.6393C221.567 29.6413 220.149 32.027 218.829 34.7964L219.572 24.286C219.572 23.1516 219.291 22.3174 218.73 21.7836C218.17 21.2497 217.362 20.9828 216.306 20.9828H211.458L205.373 71.9329H214.822L217.593 48.8602C219.572 41.0192 222.161 35.6472 225.36 32.7444C228.559 29.8415 232.286 29.2576 236.541 30.9926L238.273 21.5834C236.492 20.7826 234.711 20.5157 232.929 20.7826C231.181 21.0162 229.483 21.7168 227.834 22.8847C226.185 24.0191 224.601 25.604 223.084 27.6393Z" fill="#6C16FF"/>
<path d="M255.259 86.7977L289 21.0831H281.282C280.754 21.0831 280.227 21.2667 279.699 21.6337C279.204 21.9673 278.825 22.4178 278.561 22.985L263.57 53.515C263.208 54.2491 262.861 54.9831 262.531 55.7172C262.235 56.4512 261.938 57.202 261.641 57.9694C261.575 57.202 261.476 56.4679 261.344 55.7672C261.245 55.0332 261.113 54.2991 260.948 53.5651L253.329 23.0351C253.164 22.4678 252.901 22.0007 252.538 21.6337C252.175 21.2667 251.614 21.0831 250.856 21.0831H242.841L255.803 68.6799L244.82 88.9999H251.944C253.395 88.9999 254.5 88.2659 255.259 86.7977Z" fill="#6C16FF"/>
<path d="M149.506 27.6393C147.989 29.6413 146.571 32.027 145.251 34.7964L145.994 24.286C145.994 23.1516 145.713 22.3174 145.153 21.7836C144.592 21.2497 143.784 20.9828 142.728 20.9828H137.88L131.73 72H141.21L144.015 48.8602C145.994 41.0192 148.583 35.6472 151.782 32.7444C154.981 29.8415 158.708 29.2576 162.963 30.9926L164.695 21.5834C162.914 20.7826 161.133 20.5157 159.352 20.7826C157.603 21.0162 155.905 21.7168 154.256 22.8847C152.607 24.0191 151.023 25.604 149.506 27.6393Z" fill="#6C16FF"/>
</svg>
